ply                 
format ascii 1.0    
element vertex 76
property float x    
property float y    
property float z    
element edge 57
property int vertex1
property int vertex2
property uchar red  
property uchar green
property uchar blue 
end_header          
0 0 0
0.2 0 0
0 0.2 0
0 0 0.2
-0.912432 -0.0667375 -0.403749
-0.712768 -0.0689035 -0.415129
-0.91018 0.133245 -0.402299
-0.901069 -0.0683129 -0.204078
-1.86537 -0.108446 -0.704045
-1.66571 -0.11237 -0.715162
-1.86133 0.0915042 -0.702152
-1.85429 -0.110561 -0.504364
-2.85231 -0.144005 -0.861149
-2.65343 -0.143181 -0.88228
-2.85331 0.0559857 -0.862733
-2.83118 -0.142325 -0.662275
-3.83833 -0.221822 -1.0085
-3.63874 -0.225463 -1.02079
-3.83507 -0.0219487 -1.01483
-3.82593 -0.215706 -0.808981
-4.829 -0.247937 -1.14224
-4.62912 -0.241062 -1.14099
-4.83588 -0.0480581 -1.14116
-4.83021 -0.249061 -0.94225
-5.77485 -0.344274 -1.45222
-5.5749 -0.34336 -1.44782
-5.7758 -0.144283 -1.4505
-5.77924 -0.346016 -1.25228
-6.74994 -0.417218 -1.6617
-6.54998 -0.412882 -1.66121
-6.75424 -0.217483 -1.67106
-6.75063 -0.407878 -1.46192
-7.74517 -0.354054 -1.58736
-7.55545 -0.371046 -1.64833
-7.72562 -0.155084 -1.582
-7.68496 -0.365101 -1.39696
-8.73957 -0.278408 -1.51363
-8.54744 -0.271148 -1.45855
-8.74749 -0.0785689 -1.51236
-8.79456 -0.281813 -1.32137
-9.72363 -0.310611 -1.68852
-9.52374 -0.306795 -1.68321
-9.72755 -0.110683 -1.68486
-9.72888 -0.314376 -1.48863
-10.7053 -0.39293 -1.8607
-10.5054 -0.396763 -1.86695
-10.7017 -0.193125 -1.86877
-10.6989 -0.38498 -1.66096
-11.6693 -0.461578 -2.1175
-11.4697 -0.455439 -2.10643
-11.6748 -0.261978 -2.12888
-11.6807 -0.450518 -1.91813
-12.6405 -0.567241 -2.33089
-12.4407 -0.571199 -2.33774
-12.6364 -0.367332 -2.3265
-12.6338 -0.571771 -2.13106
-13.6269 -0.551333 -2.49444
-13.4271 -0.550392 -2.50214
-13.6275 -0.351617 -2.48379
-13.6192 -0.561952 -2.29487
-14.6141 -0.56979 -2.65288
-14.4141 -0.566411 -2.65269
-14.6175 -0.369884 -2.65799
-14.6144 -0.564684 -2.45295
-15.6017 -0.621385 -2.80107
-15.4021 -0.629068 -2.80999
-15.5944 -0.421723 -2.81013
-15.5925 -0.61266 -2.60147
-16.5966 -0.644891 -2.89911
-16.3968 -0.640969 -2.90639
-16.6003 -0.445035 -2.89249
-16.5892 -0.651371 -2.69936
-17.5839 -0.79682 -2.94638
-17.3849 -0.801944 -2.96584
-17.5791 -0.596908 -2.94985
-17.5643 -0.793839 -2.74736
0 1 255 0 0
0 2 0 255 0
0 3 0 0 255
4 5 255 0 0
4 6 0 255 0
4 7 0 0 255
8 9 255 0 0
8 10 0 255 0
8 11 0 0 255
12 13 255 0 0
12 14 0 255 0
12 15 0 0 255
16 17 255 0 0
16 18 0 255 0
16 19 0 0 255
20 21 255 0 0
20 22 0 255 0
20 23 0 0 255
24 25 255 0 0
24 26 0 255 0
24 27 0 0 255
28 29 255 0 0
28 30 0 255 0
28 31 0 0 255
32 33 255 0 0
32 34 0 255 0
32 35 0 0 255
36 37 255 0 0
36 38 0 255 0
36 39 0 0 255
40 41 255 0 0
40 42 0 255 0
40 43 0 0 255
44 45 255 0 0
44 46 0 255 0
44 47 0 0 255
48 49 255 0 0
48 50 0 255 0
48 51 0 0 255
52 53 255 0 0
52 54 0 255 0
52 55 0 0 255
56 57 255 0 0
56 58 0 255 0
56 59 0 0 255
60 61 255 0 0
60 62 0 255 0
60 63 0 0 255
64 65 255 0 0
64 66 0 255 0
64 67 0 0 255
68 69 255 0 0
68 70 0 255 0
68 71 0 0 255
72 73 255 0 0
72 74 0 255 0
72 75 0 0 255
