ply                 
format ascii 1.0    
element vertex 40
property float x    
property float y    
property float z    
element edge 30
property int vertex1
property int vertex2
property uchar red  
property uchar green
property uchar blue 
end_header          
-0.0755326 -0.00347668 -0.210603
0.124451 -0.0027438 -0.213028
-0.0762612 0.196522 -0.210244
-0.0731059 -0.00382639 -0.0106181
1.02074 0.0408287 0.115121
1.21994 0.0497996 0.130615
1.01159 0.240609 0.117165
1.00536 0.0380835 0.31451
1.06245 0.0215067 0.126668
1.25932 0.0324932 0.160156
1.05071 0.221131 0.130194
1.02922 0.0160705 0.323813
0.999328 0.0769268 -0.00602113
1.19859 0.0907566 -0.0161994
0.98507 0.276244 -0.0143377
1.0089 0.0859383 0.193547
0.985713 0.0466574 -0.0776831
1.18174 0.0493727 -0.117247
0.983309 0.246635 -0.0758692
1.0253 0.0453551 0.118356
0.995637 -0.00405528 -0.24261
1.18769 -0.00408422 -0.298425
0.99662 0.195915 -0.239331
1.05144 -0.00747868 -0.0505846
1.03852 0.0538476 0.0850125
1.23712 0.0674966 0.1043
1.02454 0.253339 0.0877861
1.01947 0.0497452 0.284061
1.01363 0.0150834 0.0477515
1.21363 0.0155328 0.0478857
1.01318 0.215075 0.04593
1.01349 0.0169046 0.247743
-0.280665 0.155191 -3.3077
-0.111743 0.0801353 -3.38407
-0.230307 0.336759 -3.37476
-0.186167 0.1926 -3.13545
0 0 0
0 0 0
0 0 0
0 0 0
0 1 255 0 0
0 2 0 255 0
0 3 0 0 255
4 5 255 0 0
4 6 0 255 0
4 7 0 0 255
8 9 255 0 0
8 10 0 255 0
8 11 0 0 255
12 13 255 0 0
12 14 0 255 0
12 15 0 0 255
16 17 255 0 0
16 18 0 255 0
16 19 0 0 255
20 21 255 0 0
20 22 0 255 0
20 23 0 0 255
24 25 255 0 0
24 26 0 255 0
24 27 0 0 255
28 29 255 0 0
28 30 0 255 0
28 31 0 0 255
32 33 255 0 0
32 34 0 255 0
32 35 0 0 255
36 37 255 0 0
36 38 0 255 0
36 39 0 0 255
