ply                 
format ascii 1.0    
element vertex 40
property float x    
property float y    
property float z    
element edge 30
property int vertex1
property int vertex2
property uchar red  
property uchar green
property uchar blue 
end_header          
-0.0741035 -0.115541 -0.375682
0.125894 -0.114661 -0.375196
-0.0749782 0.0844447 -0.377891
-0.0745986 -0.113334 -0.175695
-0.739369 -0.239779 -0.67135
-0.539589 -0.241032 -0.680638
-0.738242 -0.0398007 -0.674094
-0.730064 -0.23709 -0.471585
-1.47826 -0.244006 -0.8581
-1.2792 -0.247816 -0.877099
-1.47445 -0.0440427 -0.85827
-1.45926 -0.244199 -0.659004
-2.287 -0.2703 -0.931156
-2.0892 -0.274669 -0.960387
-2.28282 -0.0703498 -0.932751
-2.25775 -0.269334 -0.733311
-3.01327 -0.283862 -0.982424
-2.81633 -0.292814 -1.01609
-3.00541 -0.0841438 -0.989569
-2.97933 -0.278149 -0.785408
-3.68788 -0.402806 -1.12825
-3.49027 -0.404779 -1.159
-3.68681 -0.202896 -1.13416
-3.65709 -0.397131 -0.930714
-4.50901 -0.423894 -1.26397
-4.31137 -0.423256 -1.29457
-4.50993 -0.223904 -1.26575
-4.47842 -0.421998 -1.06634
-5.22857 -0.596347 -1.45303
-5.03054 -0.59383 -1.48087
-5.23276 -0.396736 -1.46477
-5.20094 -0.584137 -1.25532
-5.91966 -0.118123 -0.0213224
-5.73759 -0.130642 -0.103133
-5.90825 0.0814843 -0.0264669
-5.83769 -0.118109 0.161107
-6.79805 -0.377958 -1.27241
-6.60294 -0.380569 -1.31631
-6.79554 -0.177975 -1.27315
-6.75415 -0.377792 -1.07729
0 1 255 0 0
0 2 0 255 0
0 3 0 0 255
4 5 255 0 0
4 6 0 255 0
4 7 0 0 255
8 9 255 0 0
8 10 0 255 0
8 11 0 0 255
12 13 255 0 0
12 14 0 255 0
12 15 0 0 255
16 17 255 0 0
16 18 0 255 0
16 19 0 0 255
20 21 255 0 0
20 22 0 255 0
20 23 0 0 255
24 25 255 0 0
24 26 0 255 0
24 27 0 0 255
28 29 255 0 0
28 30 0 255 0
28 31 0 0 255
32 33 255 0 0
32 34 0 255 0
32 35 0 0 255
36 37 255 0 0
36 38 0 255 0
36 39 0 0 255
